<svg width="360" height="46" viewBox="0 0 360 46" fill="none" xmlns="http://www.w3.org/2000/svg">
<path d="M0.0381192 1.672H22.1181V8.392H6.99812V16.408H20.1021V23.128H6.99812V37H0.0381192V1.672ZM40.3394 1.672H49.2194L72.2594 37H63.2834L40.3394 1.672ZM39.8594 37L52.4354 17.224L55.6994 24.232L48.4994 37H39.8594ZM56.1794 14.632L63.4754 1.672H71.9234L59.7794 20.632L56.1794 14.632Z" fill="#9D9D9D"/>
<path d="M91.4406 22.792C91.4406 19.528 91.8246 16.472 92.5926 13.624C93.3926 10.776 94.4006 8.248 95.6166 6.04C96.8646 3.8 98.1606 1.96 99.5046 0.519998L105.025 3.064C103.777 4.504 102.657 6.2 101.665 8.152C100.673 10.072 99.8886 12.264 99.3126 14.728C98.7366 17.16 98.4486 19.848 98.4486 22.792C98.4486 25.736 98.7366 28.44 99.3126 30.904C99.8886 33.336 100.673 35.512 101.665 37.432C102.657 39.352 103.777 41.032 105.025 42.472L99.5046 45.064C98.1606 43.592 96.8646 41.736 95.6166 39.496C94.4006 37.288 93.3926 34.776 92.5926 31.96C91.8246 29.112 91.4406 26.056 91.4406 22.792ZM145.258 10.216C143.914 9.48 142.538 8.872 141.13 8.392C139.754 7.912 138.458 7.672 137.242 7.672C135.738 7.672 134.554 7.976 133.69 8.584C132.826 9.192 132.394 10.104 132.394 11.32C132.394 12.152 132.714 12.904 133.354 13.576C134.026 14.216 134.874 14.792 135.898 15.304C136.954 15.816 138.042 16.28 139.162 16.696C140.186 17.08 141.194 17.544 142.186 18.088C143.21 18.6 144.122 19.256 144.922 20.056C145.722 20.824 146.362 21.8 146.842 22.984C147.322 24.136 147.562 25.56 147.562 27.256C147.562 29.048 147.098 30.712 146.17 32.248C145.242 33.784 143.882 35.032 142.09 35.992C140.298 36.92 138.09 37.384 135.466 37.384C134.122 37.384 132.746 37.256 131.338 37C129.962 36.712 128.602 36.296 127.258 35.752C125.914 35.176 124.618 34.456 123.37 33.592L126.442 28.168C127.274 28.776 128.17 29.32 129.13 29.8C130.122 30.248 131.114 30.6 132.106 30.856C133.098 31.112 134.01 31.24 134.842 31.24C135.674 31.24 136.506 31.128 137.338 30.904C138.202 30.648 138.906 30.232 139.45 29.656C140.026 29.08 140.314 28.28 140.314 27.256C140.314 26.552 140.074 25.912 139.594 25.336C139.146 24.76 138.522 24.232 137.722 23.752C136.954 23.272 136.106 22.856 135.178 22.504C134.09 22.088 132.97 21.608 131.818 21.064C130.666 20.52 129.578 19.864 128.554 19.096C127.562 18.296 126.746 17.32 126.106 16.168C125.498 14.984 125.194 13.544 125.194 11.848C125.194 9.8 125.642 8.024 126.538 6.52C127.466 5.016 128.762 3.832 130.426 2.968C132.09 2.072 134.01 1.576 136.186 1.48C139.034 1.48 141.338 1.816 143.098 2.488C144.89 3.16 146.49 3.96 147.898 4.888L145.258 10.216ZM166.379 1.672H190.187V8.392H181.595V37H174.635V8.392H166.379V1.672ZM211.304 37V1.672H221.864C225.416 1.672 228.44 2.2 230.936 3.256C233.432 4.312 235.432 5.72 236.936 7.48C238.472 9.24 239.592 11.208 240.296 13.384C241 15.56 241.352 17.752 241.352 19.96C241.352 22.584 240.872 24.952 239.912 27.064C238.984 29.144 237.704 30.936 236.072 32.44C234.44 33.912 232.552 35.048 230.408 35.848C228.264 36.616 225.992 37 223.592 37H211.304ZM218.264 30.28H222.392C224.152 30.28 225.752 30.056 227.192 29.608C228.632 29.128 229.864 28.44 230.888 27.544C231.944 26.648 232.744 25.528 233.288 24.184C233.864 22.808 234.152 21.24 234.152 19.48C234.152 17.176 233.768 15.304 233 13.864C232.264 12.392 231.336 11.256 230.216 10.456C229.128 9.656 228.008 9.112 226.856 8.824C225.704 8.504 224.728 8.344 223.928 8.344H218.264V30.28ZM262.735 1.672H269.695V37H262.735V1.672ZM291.053 19.384C291.053 16.952 291.517 14.648 292.445 12.472C293.373 10.296 294.653 8.376 296.285 6.712C297.949 5.016 299.869 3.688 302.045 2.728C304.221 1.768 306.557 1.288 309.053 1.288C311.517 1.288 313.837 1.768 316.013 2.728C318.189 3.688 320.109 5.016 321.773 6.712C323.469 8.376 324.781 10.296 325.709 12.472C326.669 14.648 327.149 16.952 327.149 19.384C327.149 21.88 326.669 24.216 325.709 26.392C324.781 28.568 323.469 30.488 321.773 32.152C320.109 33.784 318.189 35.064 316.013 35.992C313.837 36.92 311.517 37.384 309.053 37.384C306.557 37.384 304.221 36.92 302.045 35.992C299.869 35.064 297.949 33.784 296.285 32.152C294.653 30.488 293.373 28.568 292.445 26.392C291.517 24.216 291.053 21.88 291.053 19.384ZM298.253 19.384C298.253 20.952 298.525 22.424 299.069 23.8C299.645 25.144 300.429 26.344 301.421 27.4C302.445 28.424 303.613 29.224 304.925 29.8C306.269 30.376 307.725 30.664 309.293 30.664C310.797 30.664 312.189 30.376 313.469 29.8C314.781 29.224 315.917 28.424 316.877 27.4C317.837 26.344 318.589 25.144 319.133 23.8C319.677 22.424 319.949 20.952 319.949 19.384C319.949 17.784 319.661 16.296 319.085 14.92C318.541 13.544 317.773 12.344 316.781 11.32C315.821 10.264 314.685 9.448 313.373 8.872C312.061 8.296 310.637 8.008 309.101 8.008C307.565 8.008 306.141 8.296 304.829 8.872C303.517 9.448 302.365 10.264 301.373 11.32C300.381 12.344 299.613 13.544 299.069 14.92C298.525 16.296 298.253 17.784 298.253 19.384ZM359.912 22.792C359.912 26.056 359.512 29.112 358.712 31.96C357.944 34.808 356.952 37.336 355.736 39.544C354.52 41.784 353.224 43.624 351.848 45.064L346.328 42.52C347.576 41.08 348.696 39.384 349.688 37.432C350.68 35.512 351.464 33.336 352.04 30.904C352.616 28.44 352.904 25.736 352.904 22.792C352.904 19.848 352.616 17.16 352.04 14.728C351.464 12.264 350.68 10.072 349.688 8.152C348.696 6.2 347.576 4.52 346.328 3.112L351.848 0.519998C353.224 1.96 354.52 3.8 355.736 6.04C356.952 8.28 357.944 10.824 358.712 13.672C359.512 16.488 359.912 19.528 359.912 22.792Z" fill="white"/>
</svg>
